PathFileType	3	(X/Y/Z)	D:\Jess\PFP\Labelled\PA24\20251014\SRRun01.trc
DataRate	CameraRate	NumFrames	NumMarkers	Units	OrigDataRate	OrigDataStartFrame	OrigNumFrames
250.0	250.0	6	33	mm	250.0	37188	2501
Frame#	Time	C7			T10			CLAV			LSHO			RSHO			LASIS			RASIS			LPSIS			RPSIS			LILCR			RILCR			LGTR			LTHI			LLTHI			LLEP			LPSH			LLSH			LDSH			LLMAL			LTOE			L5TH			LHEE			RGTR			RTHI			RLTHI			RLEP			RPSH			RLSH			RDSH			RLMAL			RTOE			R5TH			RHEE			
		X1	Y1	Z1	X2	Y2	Z2	X3	Y3	Z3	X4	Y4	Z4	X5	Y5	Z5	X6	Y6	Z6	X7	Y7	Z7	X8	Y8	Z8	X9	Y9	Z9	X10	Y10	Z10	X11	Y11	Z11	X12	Y12	Z12	X13	Y13	Z13	X14	Y14	Z14	X15	Y15	Z15	X16	Y16	Z16	X17	Y17	Z17	X18	Y18	Z18	X19	Y19	Z19	X20	Y20	Z20	X21	Y21	Z21	X22	Y22	Z22	X23	Y23	Z23	X24	Y24	Z24	X25	Y25	Z25	X26	Y26	Z26	X27	Y27	Z27	X28	Y28	Z28	X29	Y29	Z29	X30	Y30	Z30	X31	Y31	Z31	X32	Y32	Z32	X33	Y33	Z33	

2189	148.748	810.6680731968793	1450.813348922579	-1008.633793534997	787.6366525693069	1229.784186770487	-927.6668711215291	846.5902090194272	1361.538319743305	-1112.186474558963	677.0269695402151	1419.196557508274	-1118.285277029462	970.6916973786172	1425.266842646681	-1026.084513025635	704.0851169582177	1001.614536346607	-1069.781888427013	955.4485727890275	1008.024716931304	-1005.005935507864	760.3472398509742	1043.048620692692	-887.0530012699415	808.0909239813334	1037.154332551154	-870.6939423401459	683.3429531970323	1074.842147390766	-1039.776515229983	957.6187121426642	1078.332885276203	-960.1366722378456	648.5818047414685	949.0443141574127	-1024.710938944062	727.7712838691746	757.8669329809912	-1074.450853702582	669.1898206260885	668.0097793342753	-947.9015822251774	696.1463261327623	508.2685842588881	-891.1152336579539	738.3911441198071	415.5786861596271	-851.4179571752915	698.402142818094	439.7499632470533	-703.3310224480086	738.535112960509	339.3977620170661	-638.3673040747032	720.1061003126827	341.5158790106946	-510.4988223257729	724.4476426176701	192.8003635639707	-475.9402668079435	703.2495256008312	233.8136863285699	-435.8944608026518	782.205471506477	399.6507418800514	-495.6676633106078	993.2450242707606	933.6589929208085	-944.1121635302818	939.2241364964427	794.2724782972431	-1114.711788604701	961.9982262819921	669.8115746427987	-1048.888617977149	924.6109472696779	499.6780069758114	-1111.504660399017	860.0279544844093	438.0924296914199	-1166.404842676548	905.5570741802247	309.5602184965878	-1106.83341559272	839.6047815905719	211.9265063724813	-1165.211535027514	862.2580431329916	105.9030809310363	-1122.964010148504	873.4332502615728	81.95951191303321	-1272.11922589354	898.9089143545085	46.94109492410654	-1228.803518886549	801.5867791276336	62.2888856330674	-1067.414045830092	
2190	148.752	811.1170842705965	1447.543448796838	-1007.921627627505	787.9254978676439	1226.252766333355	-927.0953675718051	846.7706178081002	1357.986366322947	-1111.898380794248	676.868542723734	1415.852748499525	-1117.827669422936	971.3653929531768	1421.814663941735	-1025.71704967106	704.1449927893447	998.1373858327513	-1069.914153937103	956.1424666076325	1004.855083042355	-1004.152824034186	759.6526487316244	1038.127517069112	-886.0949281554862	807.3490107876377	1032.421349596298	-869.5991437858751	682.794708003173	1071.379349266117	-1039.469665901014	957.7718296034286	1074.610059360193	-959.2170451547457	648.6721918043778	945.0919655221641	-1025.416744703964	727.6922577500749	754.8657053806808	-1076.178148109357	668.2066631518672	663.5745125978275	-951.6408221795323	694.6961285662585	503.9596408242103	-896.8070505010454	736.9235142139702	412.2600471059724	-856.2682066048934	697.4433496619769	439.7696285950306	-708.4485626497931	737.1974112124307	340.8765354576319	-641.4566655157727	719.211952778861	346.2326157670319	-513.775869920639	721.9832080280922	198.4124972500373	-475.6827664277944	701.2358469580957	240.6418027210126	-436.688056310145	782.0439882388764	404.0381171543478	-500.4677203182466	993.0661220496955	930.0282562986393	-943.1496160677177	940.4401774756698	792.3217438688905	-1115.658476736175	961.2825153859243	667.5648972044015	-1049.252116147503	923.9047500270683	497.4130586004825	-1112.301103178653	858.45687748355	435.4028690177576	-1166.125853371346	904.1046631107619	307.6440026397482	-1104.779505846074	837.0134409377902	209.2351404976286	-1160.101616744463	860.1236826398996	104.8360398299649	-1115.312173869142	871.7373353594368	78.33331280305806	-1263.563909687143	898.1480608432938	45.16655070455017	-1219.055337968961	799.9553469251636	62.63141927488309	-1058.185711735164	
2191	148.756	811.5517911368411	1444.273297246673	-1007.203602376178	788.1933319604196	1222.699979761218	-926.5011087502394	846.9393110907098	1354.364597676396	-1111.621082146974	676.6400118660994	1412.479845410038	-1117.350803679905	972.0513854988451	1418.313772508193	-1025.329659780977	704.2247357893486	994.4787322682143	-1069.973170621033	956.8227595360019	1001.764428207178	-1003.256762499261	758.9083823707371	1033.18861890668	-885.0602369328928	806.5694686209051	1027.765538494753	-868.455572655356	682.2405279777494	1067.737961563743	-1039.181585373074	957.9249476713727	1070.939318841198	-958.3090866674592	648.7863260217904	940.9738406439103	-1026.078484815914	727.6656892413762	751.7898714283785	-1077.880382550423	667.2396927445342	659.1752333745193	-955.3438789103468	693.1850042720587	499.638543820371	-902.5735769793218	735.4483484405345	408.9627625989689	-861.3155190152726	696.4085248081552	439.6222426667678	-713.8205142702836	735.8310426388637	342.2209326941192	-644.9113391304707	718.2773717718642	350.7156004465919	-517.5094907502328	719.4736691268854	203.8444218773411	-475.9666687472238	699.1597189135953	247.2486406014081	-438.0437628962836	781.8365135760494	408.1632137778055	-505.6733003546758	992.9345214569647	926.5743776787644	-942.1577288605703	941.4980860478211	790.4505905562191	-1116.431218874469	960.7146313563302	665.4382238236367	-1049.638237299532	923.2300463344153	495.3465427632495	-1113.257950416155	856.8636205996556	432.9411586781808	-1165.870099097936	902.7523686463477	305.9881090784577	-1102.772666821271	834.5043014820696	206.8190915424746	-1154.831281149181	858.1285018862175	104.0770359287426	-1107.482821620227	870.1575147427652	75.14299889626153	-1254.761471078668	897.4591582147076	43.78044062967473	-1209.13744124539	798.479703166449	63.14314964658008	-1048.781316716022	
2192	148.76	811.9692764376662	1441.030404113539	-1006.491267646149	788.4365572488261	1219.159972054182	-925.88319917846	847.095168932501	1350.692462708409	-1111.355482625179	676.3448597543809	1409.093250354021	-1116.863187848507	972.7453504474518	1414.781039160668	-1024.924953320105	704.3272915793763	990.6706270264885	-1069.946837028026	957.486483423239	998.7832916985477	-1002.325533266579	758.1183782169092	1028.282480800347	-883.9573583156952	805.7568400718735	1023.232557121053	-867.2761424536501	681.6899919662088	1063.937128218791	-1038.902419035671	958.0748387542399	1067.358532120887	-957.4050136459139	648.9204390514586	936.7306781055164	-1026.690406435965	727.7076234793527	748.6775405461669	-1079.562538522874	666.2991693745373	654.8412941076218	-959.0106856049475	691.629122451941	495.3328508940193	-908.4194888143983	733.981760022098	405.7027647726717	-866.561764419332	695.2974885841491	439.3108702668071	-719.4395255513003	734.4484287085155	343.4284560153048	-648.7244664938623	717.2992166479469	354.9429792501171	-521.6835301331068	716.9349271915257	209.0609148041719	-476.814021667008	697.0231223168093	253.5847843920043	-439.9725884972268	781.5654103170859	412.0173651220184	-511.2408188388541	992.8442364743048	923.324569419817	-941.1372239621671	942.3806804646736	788.6715985876871	-1117.001895327143	960.2955531992574	663.4332881747625	-1050.034770243256	922.5866290820809	493.4811794969386	-1114.344020278799	855.2688534305021	430.7088153396273	-1165.607897598537	901.5086717491032	304.5890139398645	-1100.779418464708	832.1094073044216	204.6838827588483	-1149.400162579035	856.2880346500226	103.6156088914449	-1099.494873730665	868.71369590948	72.39748294118669	-1245.740247510605	896.8429134712738	42.76826078591404	-1199.087936787155	797.1599326154793	63.80524079873639	-1039.241554232134	
2193	148.764	812.3665620804807	1437.841937513383	-1005.796077535811	788.6517779358608	1215.667480816833	-925.2409191249061	847.2365358008211	1346.990172132843	-1111.101379178496	675.9888745697641	1405.708127272657	-1116.373366136071	973.4416234138063	1411.234019402694	-1024.506628728679	704.453268209711	986.7511355747171	-1069.82345356094	958.1299668313478	995.9400615439051	-1001.370141682097	757.2890972754508	1023.460213857574	-882.7961391714123	804.9178954432612	1018.865536059492	-866.0747139158156	681.1516442258462	1060.002187238256	-1038.618771007179	958.21845684612	1063.904701517721	-956.496224354383	649.0692719388892	932.4086806999406	-1027.245461045153	727.833991929573	745.5704176446086	-1081.228310007076	665.3936603470354	650.6011079363191	-962.6437114593742	690.0463854545385	491.0720241817195	-914.3511928425722	732.5402415879477	402.4963406053139	-872.0089922265305	694.1122795544505	438.8419309688769	-725.2984183067298	733.0622265135964	344.4980455537827	-652.888669382347	716.2745734913278	358.8946328730175	-526.2797873754303	714.3832944783932	214.0256969076217	-478.2450586446355	694.828301216722	259.6005736041598	-442.482661150945	781.2132430280753	415.5946259393706	-517.124777611854	992.7882099437635	920.3022728347939	-940.091796022404	943.075263854574	786.9983741640657	-1117.351801129658	960.0224237225148	661.5501663923729	-1050.428823516952	921.9754594674854	491.8092540449597	-1115.513640440197	853.6984539403669	428.6936617738916	-1165.302922569182	900.3795366348027	303.4320534982634	-1098.754772072253	829.8577734391664	202.8233777563673	-1143.803528402948	854.6134280819065	103.431358977143	-1091.36154261882	867.4204340875616	70.08976575461884	-1236.525332689712	896.2984405639975	42.10321390463771	-1188.93818074787	795.9927304889275	64.59583851583052	-1029.599513099	
2194	148.768	812.7406221254959	1434.733899197699	-1005.128854817835	788.8358581399309	1212.256697996808	-924.5738591974501	847.3612514715845	1343.278466970364	-1110.8574920872	675.5799543340048	1402.339380456689	-1115.889562427091	974.133294018573	1407.690834588025	-1024.079482315208	704.6007987730443	982.7634846526264	-1069.592254546064	958.7487612321098	993.2598539807697	-1000.404532825006	756.42974316359	1018.772062296674	-881.5874735496045	804.0618800755815	1014.703870219932	-864.8654542436841	680.632634145011	1055.964563738075	-1038.314267560049	958.3530930165555	1060.612676376812	-955.5742811422828	649.2263447053998	928.0582870143362	-1027.735215422272	728.0596360720074	742.5125664727713	-1082.879851535855	664.5297939090531	646.4816771263937	-966.2477374087713	688.4558556087979	486.8869450521505	-920.3763650858887	731.1399734332879	399.3600128883444	-877.6591145013749	692.8572235226081	438.2250950579267	-731.3901159042636	731.6848472721487	345.4298204180216	-657.396097558829	715.2008836807233	362.5522874043515	-531.2782603771336	711.8351744989811	218.7019337936035	-480.27712255283	692.5779915344856	265.2470646493315	-445.5785634112598	780.7633470610446	418.8913621363507	-523.2790221673218	992.7589669357527	917.5261973016305	-939.0283357258999	943.5740477321899	785.4434980760967	-1117.4718630547	959.8889878382613	659.7868480009614	-1050.806244589219	921.3986414994388	490.3128219156392	-1116.707543288016	852.1821436318986	426.8705592594158	-1164.913196336027	899.3680667608028	302.4924011086463	-1096.644441460897	827.7738498307134	201.2207595160536	-1138.033081502814	853.1109213952661	103.4954481853049	-1083.090884992785	866.2864517637183	68.19899561964019	-1227.138554338768	895.8232566296587	41.74871079475198	-1178.712964517758	794.9715330771103	65.49089070733832	-1019.880801319655	
